# xmcd
#
# Track frame offsets:
#	150
#	17919
#	29813
#	45653
#	65477
#	78144
#	90135
#	107789
#	116436
#	127912
#	144003
#	159028
#	181263
#	191053
#	207474
#	231481
#	250665
#	267142
#	290031
#	317407
#
# Disc length: 4387 seconds
#
# Revision: 1
# Processed by: cddbd v1.5.2PL0 Copyright (c) Steve Scherf et al.
# Submitted via: audiograbber 1.83.01
#
DISCID=0a112114
DTITLE=Johnny McEvoy - The Essential Johnny McEvoy - Disc 2
DYEAR=1900
DGENRE=
TTITLE0=The Sailor
TTITLE1=Where My Eileen Is Waiting
TTITLE2=I Wish I Had Someone To Love Me
TTITLE3=Boolavogue
TTITLE4=Tonight You're With Another
TTITLE5=The Boston Burglar
TTITLE6=The Wheels Go Round And Round
TTITLE7=Fiddlers Green
TTITLE8=Stolen Island
TTITLE9=The Rose of Mooncoin
TTITLE10=You Never Learned To Dance
TTITLE11=The West's Awake
TTITLE12=The Spanish Lady
TTITLE13=My Own Dear Galway Bay
TTITLE14=Matthew
TTITLE15=My Lovely Rose of Clare
TTITLE16=Lincoln's Army
TTITLE17=The Fields of Athenry
TTITLE18=The Town I Left Behind
TTITLE19=Mursheen Durkin
EXTD=
EXTT0=
EXTT1=
EXTT2=
EXTT3=
EXTT4=
EXTT5=
EXTT6=
EXTT7=
EXTT8=
EXTT9=
EXTT10=
EXTT11=
EXTT12=
EXTT13=
EXTT14=
EXTT15=
EXTT16=
EXTT17=
EXTT18=
EXTT19=
PLAYORDER=
